<svg xmlns="http://www.w3.org/2000/svg" width="1920" height="190" viewBox="0 0 1920 190"><defs><filter id="s"><feDropShadow dx="0" dy="2" stdDeviation="1.5" flood-color="#091229" flood-opacity=".35"/></filter></defs><g filter="url(#s)"><g transform="translate(80 95) rotate(0)">
 <ellipse cx="0" cy="75" rx="31" ry="6" fill="#091229" opacity=".22"/>
 <circle cx="0" cy="-38" r="30" fill="#ffd0bc" stroke="#10192e" stroke-width="4"/>
 <path d="M-30-44Q-18-70-2-62Q18-72 33-46Q20-56 12-39Q1-52-10-39Q-20-51-30-44Z" fill="#11192c"/>
 <path d="M-27-51Q-10-67 2-59M12-58Q21-57 28-48" fill="none" stroke="#ef284c" stroke-width="6" stroke-linecap="round"/>
 <circle cx="10" cy="-35" r="4.1" fill="#14213a"/><circle cx="11.4" cy="-36.4" r="1.3" fill="#fff"/>
 <path d="M-23 3Q-19-13 0-15Q20-12 24 4L20 43Q2 53-20 43Z" fill="#f7f8fb" stroke="#11192c" stroke-width="4"/>
 <path d="M-20 17L-4 12L-5 43L-20 40Z" fill="#161e31"/><path d="M7-7L23 4L20 19L7 14Z" fill="#ef284c"/><circle cx="2" cy="8" r="4" fill="#11192c"/><circle cx="2" cy="8" r="1.7" fill="#ef284c"/>
 <g transform="rotate(0 -18 8)"><path d="M-18 7Q-28 22-25 42" fill="none" stroke="#f4f6fb" stroke-width="12" stroke-linecap="round"/><path d="M-24 39l-8 7 8 9 10-6z" fill="#151d30" stroke="#ef284c" stroke-width="3"/></g>
 <g transform="rotate(0 18 8)"><path d="M18 7Q29 22 25 42" fill="none" stroke="#161f34" stroke-width="12" stroke-linecap="round"/><path d="M24 39l9 7-8 9-10-6z" fill="#f4f6fb" stroke="#11192c" stroke-width="3"/></g>
 <g transform="rotate(0 -9 45)"><path d="M-9 42Q-14 61-12 79" fill="none" stroke="#172138" stroke-width="16" stroke-linecap="round"/><path d="M-22 76Q-7 70 6 79L3 93Q-14 98-30 91Z" fill="#f7f7fb" stroke="#11192c" stroke-width="4"/><path d="M-23 86Q-8 90 2 83" stroke="#ef284c" stroke-width="4" fill="none"/></g>
 <g transform="rotate(0 9 45)"><path d="M9 42Q14 61 12 79" fill="none" stroke="#172138" stroke-width="16" stroke-linecap="round"/><path d="M2 79Q17 70 31 78L33 91Q16 98 1 93Z" fill="#f7f7fb" stroke="#11192c" stroke-width="4"/><path d="M6 87Q20 90 30 83" stroke="#ef284c" stroke-width="4" fill="none"/></g>
 </g><g transform="translate(240 96) rotate(1)">
 <ellipse cx="0" cy="75" rx="31" ry="6" fill="#091229" opacity=".22"/>
 <circle cx="0" cy="-38" r="30" fill="#ffd0bc" stroke="#10192e" stroke-width="4"/>
 <path d="M-30-44Q-18-70-2-62Q18-72 33-46Q20-56 12-39Q1-52-10-39Q-20-51-30-44Z" fill="#11192c"/>
 <path d="M-27-51Q-10-67 2-59M12-58Q21-57 28-48" fill="none" stroke="#ef284c" stroke-width="6" stroke-linecap="round"/>
 <circle cx="10" cy="-35" r="4.1" fill="#14213a"/><circle cx="11.4" cy="-36.4" r="1.3" fill="#fff"/>
 <path d="M-23 3Q-19-13 0-15Q20-12 24 4L20 43Q2 53-20 43Z" fill="#f7f8fb" stroke="#11192c" stroke-width="4"/>
 <path d="M-20 17L-4 12L-5 43L-20 40Z" fill="#161e31"/><path d="M7-7L23 4L20 19L7 14Z" fill="#ef284c"/><circle cx="2" cy="8" r="4" fill="#11192c"/><circle cx="2" cy="8" r="1.7" fill="#ef284c"/>
 <g transform="rotate(-4 -18 8)"><path d="M-18 7Q-28 22-25 42" fill="none" stroke="#f4f6fb" stroke-width="12" stroke-linecap="round"/><path d="M-24 39l-8 7 8 9 10-6z" fill="#151d30" stroke="#ef284c" stroke-width="3"/></g>
 <g transform="rotate(4 18 8)"><path d="M18 7Q29 22 25 42" fill="none" stroke="#161f34" stroke-width="12" stroke-linecap="round"/><path d="M24 39l9 7-8 9-10-6z" fill="#f4f6fb" stroke="#11192c" stroke-width="3"/></g>
 <g transform="rotate(-4 -9 45)"><path d="M-9 42Q-14 61-12 79" fill="none" stroke="#172138" stroke-width="16" stroke-linecap="round"/><path d="M-22 76Q-7 70 6 79L3 93Q-14 98-30 91Z" fill="#f7f7fb" stroke="#11192c" stroke-width="4"/><path d="M-23 86Q-8 90 2 83" stroke="#ef284c" stroke-width="4" fill="none"/></g>
 <g transform="rotate(3 9 45)"><path d="M9 42Q14 61 12 79" fill="none" stroke="#172138" stroke-width="16" stroke-linecap="round"/><path d="M2 79Q17 70 31 78L33 91Q16 98 1 93Z" fill="#f7f7fb" stroke="#11192c" stroke-width="4"/><path d="M6 87Q20 90 30 83" stroke="#ef284c" stroke-width="4" fill="none"/></g>
 </g><g transform="translate(400 88) rotate(-8)">
 <ellipse cx="0" cy="75" rx="31" ry="6" fill="#091229" opacity=".22"/>
 <circle cx="0" cy="-38" r="30" fill="#ffd0bc" stroke="#10192e" stroke-width="4"/>
 <path d="M-30-44Q-18-70-2-62Q18-72 33-46Q20-56 12-39Q1-52-10-39Q-20-51-30-44Z" fill="#11192c"/>
 <path d="M-27-51Q-10-67 2-59M12-58Q21-57 28-48" fill="none" stroke="#ef284c" stroke-width="6" stroke-linecap="round"/>
 <circle cx="10" cy="-35" r="4.1" fill="#14213a"/><circle cx="11.4" cy="-36.4" r="1.3" fill="#fff"/>
 <path d="M-23 3Q-19-13 0-15Q20-12 24 4L20 43Q2 53-20 43Z" fill="#f7f8fb" stroke="#11192c" stroke-width="4"/>
 <path d="M-20 17L-4 12L-5 43L-20 40Z" fill="#161e31"/><path d="M7-7L23 4L20 19L7 14Z" fill="#ef284c"/><circle cx="2" cy="8" r="4" fill="#11192c"/><circle cx="2" cy="8" r="1.7" fill="#ef284c"/>
 <g transform="rotate(18 -18 8)"><path d="M-18 7Q-28 22-25 42" fill="none" stroke="#f4f6fb" stroke-width="12" stroke-linecap="round"/><path d="M-24 39l-8 7 8 9 10-6z" fill="#151d30" stroke="#ef284c" stroke-width="3"/></g>
 <g transform="rotate(-22 18 8)"><path d="M18 7Q29 22 25 42" fill="none" stroke="#161f34" stroke-width="12" stroke-linecap="round"/><path d="M24 39l9 7-8 9-10-6z" fill="#f4f6fb" stroke="#11192c" stroke-width="3"/></g>
 <g transform="rotate(24 -9 45)"><path d="M-9 42Q-14 61-12 79" fill="none" stroke="#172138" stroke-width="16" stroke-linecap="round"/><path d="M-22 76Q-7 70 6 79L3 93Q-14 98-30 91Z" fill="#f7f7fb" stroke="#11192c" stroke-width="4"/><path d="M-23 86Q-8 90 2 83" stroke="#ef284c" stroke-width="4" fill="none"/></g>
 <g transform="rotate(-18 9 45)"><path d="M9 42Q14 61 12 79" fill="none" stroke="#172138" stroke-width="16" stroke-linecap="round"/><path d="M2 79Q17 70 31 78L33 91Q16 98 1 93Z" fill="#f7f7fb" stroke="#11192c" stroke-width="4"/><path d="M6 87Q20 90 30 83" stroke="#ef284c" stroke-width="4" fill="none"/></g>
 </g><g transform="translate(560 94) rotate(4)">
 <ellipse cx="0" cy="75" rx="31" ry="6" fill="#091229" opacity=".22"/>
 <circle cx="0" cy="-38" r="30" fill="#ffd0bc" stroke="#10192e" stroke-width="4"/>
 <path d="M-30-44Q-18-70-2-62Q18-72 33-46Q20-56 12-39Q1-52-10-39Q-20-51-30-44Z" fill="#11192c"/>
 <path d="M-27-51Q-10-67 2-59M12-58Q21-57 28-48" fill="none" stroke="#ef284c" stroke-width="6" stroke-linecap="round"/>
 <circle cx="10" cy="-35" r="4.1" fill="#14213a"/><circle cx="11.4" cy="-36.4" r="1.3" fill="#fff"/>
 <path d="M-23 3Q-19-13 0-15Q20-12 24 4L20 43Q2 53-20 43Z" fill="#f7f8fb" stroke="#11192c" stroke-width="4"/>
 <path d="M-20 17L-4 12L-5 43L-20 40Z" fill="#161e31"/><path d="M7-7L23 4L20 19L7 14Z" fill="#ef284c"/><circle cx="2" cy="8" r="4" fill="#11192c"/><circle cx="2" cy="8" r="1.7" fill="#ef284c"/>
 <g transform="rotate(-18 -18 8)"><path d="M-18 7Q-28 22-25 42" fill="none" stroke="#f4f6fb" stroke-width="12" stroke-linecap="round"/><path d="M-24 39l-8 7 8 9 10-6z" fill="#151d30" stroke="#ef284c" stroke-width="3"/></g>
 <g transform="rotate(24 18 8)"><path d="M18 7Q29 22 25 42" fill="none" stroke="#161f34" stroke-width="12" stroke-linecap="round"/><path d="M24 39l9 7-8 9-10-6z" fill="#f4f6fb" stroke="#11192c" stroke-width="3"/></g>
 <g transform="rotate(-20 -9 45)"><path d="M-9 42Q-14 61-12 79" fill="none" stroke="#172138" stroke-width="16" stroke-linecap="round"/><path d="M-22 76Q-7 70 6 79L3 93Q-14 98-30 91Z" fill="#f7f7fb" stroke="#11192c" stroke-width="4"/><path d="M-23 86Q-8 90 2 83" stroke="#ef284c" stroke-width="4" fill="none"/></g>
 <g transform="rotate(22 9 45)"><path d="M9 42Q14 61 12 79" fill="none" stroke="#172138" stroke-width="16" stroke-linecap="round"/><path d="M2 79Q17 70 31 78L33 91Q16 98 1 93Z" fill="#f7f7fb" stroke="#11192c" stroke-width="4"/><path d="M6 87Q20 90 30 83" stroke="#ef284c" stroke-width="4" fill="none"/></g>
 </g><g transform="translate(720 86) rotate(-6)">
 <ellipse cx="0" cy="75" rx="31" ry="6" fill="#091229" opacity=".22"/>
 <circle cx="0" cy="-38" r="30" fill="#ffd0bc" stroke="#10192e" stroke-width="4"/>
 <path d="M-30-44Q-18-70-2-62Q18-72 33-46Q20-56 12-39Q1-52-10-39Q-20-51-30-44Z" fill="#11192c"/>
 <path d="M-27-51Q-10-67 2-59M12-58Q21-57 28-48" fill="none" stroke="#ef284c" stroke-width="6" stroke-linecap="round"/>
 <circle cx="10" cy="-35" r="4.1" fill="#14213a"/><circle cx="11.4" cy="-36.4" r="1.3" fill="#fff"/>
 <path d="M-23 3Q-19-13 0-15Q20-12 24 4L20 43Q2 53-20 43Z" fill="#f7f8fb" stroke="#11192c" stroke-width="4"/>
 <path d="M-20 17L-4 12L-5 43L-20 40Z" fill="#161e31"/><path d="M7-7L23 4L20 19L7 14Z" fill="#ef284c"/><circle cx="2" cy="8" r="4" fill="#11192c"/><circle cx="2" cy="8" r="1.7" fill="#ef284c"/>
 <g transform="rotate(22 -18 8)"><path d="M-18 7Q-28 22-25 42" fill="none" stroke="#f4f6fb" stroke-width="12" stroke-linecap="round"/><path d="M-24 39l-8 7 8 9 10-6z" fill="#151d30" stroke="#ef284c" stroke-width="3"/></g>
 <g transform="rotate(-18 18 8)"><path d="M18 7Q29 22 25 42" fill="none" stroke="#161f34" stroke-width="12" stroke-linecap="round"/><path d="M24 39l9 7-8 9-10-6z" fill="#f4f6fb" stroke="#11192c" stroke-width="3"/></g>
 <g transform="rotate(20 -9 45)"><path d="M-9 42Q-14 61-12 79" fill="none" stroke="#172138" stroke-width="16" stroke-linecap="round"/><path d="M-22 76Q-7 70 6 79L3 93Q-14 98-30 91Z" fill="#f7f7fb" stroke="#11192c" stroke-width="4"/><path d="M-23 86Q-8 90 2 83" stroke="#ef284c" stroke-width="4" fill="none"/></g>
 <g transform="rotate(-25 9 45)"><path d="M9 42Q14 61 12 79" fill="none" stroke="#172138" stroke-width="16" stroke-linecap="round"/><path d="M2 79Q17 70 31 78L33 91Q16 98 1 93Z" fill="#f7f7fb" stroke="#11192c" stroke-width="4"/><path d="M6 87Q20 90 30 83" stroke="#ef284c" stroke-width="4" fill="none"/></g>
 </g><g transform="translate(880 94) rotate(3)">
 <ellipse cx="0" cy="75" rx="31" ry="6" fill="#091229" opacity=".22"/>
 <circle cx="0" cy="-38" r="30" fill="#ffd0bc" stroke="#10192e" stroke-width="4"/>
 <path d="M-30-44Q-18-70-2-62Q18-72 33-46Q20-56 12-39Q1-52-10-39Q-20-51-30-44Z" fill="#11192c"/>
 <path d="M-27-51Q-10-67 2-59M12-58Q21-57 28-48" fill="none" stroke="#ef284c" stroke-width="6" stroke-linecap="round"/>
 <circle cx="10" cy="-35" r="4.1" fill="#14213a"/><circle cx="11.4" cy="-36.4" r="1.3" fill="#fff"/>
 <path d="M-23 3Q-19-13 0-15Q20-12 24 4L20 43Q2 53-20 43Z" fill="#f7f8fb" stroke="#11192c" stroke-width="4"/>
 <path d="M-20 17L-4 12L-5 43L-20 40Z" fill="#161e31"/><path d="M7-7L23 4L20 19L7 14Z" fill="#ef284c"/><circle cx="2" cy="8" r="4" fill="#11192c"/><circle cx="2" cy="8" r="1.7" fill="#ef284c"/>
 <g transform="rotate(-20 -18 8)"><path d="M-18 7Q-28 22-25 42" fill="none" stroke="#f4f6fb" stroke-width="12" stroke-linecap="round"/><path d="M-24 39l-8 7 8 9 10-6z" fill="#151d30" stroke="#ef284c" stroke-width="3"/></g>
 <g transform="rotate(20 18 8)"><path d="M18 7Q29 22 25 42" fill="none" stroke="#161f34" stroke-width="12" stroke-linecap="round"/><path d="M24 39l9 7-8 9-10-6z" fill="#f4f6fb" stroke="#11192c" stroke-width="3"/></g>
 <g transform="rotate(-22 -9 45)"><path d="M-9 42Q-14 61-12 79" fill="none" stroke="#172138" stroke-width="16" stroke-linecap="round"/><path d="M-22 76Q-7 70 6 79L3 93Q-14 98-30 91Z" fill="#f7f7fb" stroke="#11192c" stroke-width="4"/><path d="M-23 86Q-8 90 2 83" stroke="#ef284c" stroke-width="4" fill="none"/></g>
 <g transform="rotate(18 9 45)"><path d="M9 42Q14 61 12 79" fill="none" stroke="#172138" stroke-width="16" stroke-linecap="round"/><path d="M2 79Q17 70 31 78L33 91Q16 98 1 93Z" fill="#f7f7fb" stroke="#11192c" stroke-width="4"/><path d="M6 87Q20 90 30 83" stroke="#ef284c" stroke-width="4" fill="none"/></g>
 </g><g transform="translate(1040 104) rotate(14)">
 <ellipse cx="0" cy="75" rx="31" ry="6" fill="#091229" opacity=".22"/>
 <circle cx="0" cy="-38" r="30" fill="#ffd0bc" stroke="#10192e" stroke-width="4"/>
 <path d="M-30-44Q-18-70-2-62Q18-72 33-46Q20-56 12-39Q1-52-10-39Q-20-51-30-44Z" fill="#11192c"/>
 <path d="M-27-51Q-10-67 2-59M12-58Q21-57 28-48" fill="none" stroke="#ef284c" stroke-width="6" stroke-linecap="round"/>
 <circle cx="10" cy="-35" r="4.1" fill="#14213a"/><circle cx="11.4" cy="-36.4" r="1.3" fill="#fff"/>
 <path d="M-23 3Q-19-13 0-15Q20-12 24 4L20 43Q2 53-20 43Z" fill="#f7f8fb" stroke="#11192c" stroke-width="4"/>
 <path d="M-20 17L-4 12L-5 43L-20 40Z" fill="#161e31"/><path d="M7-7L23 4L20 19L7 14Z" fill="#ef284c"/><circle cx="2" cy="8" r="4" fill="#11192c"/><circle cx="2" cy="8" r="1.7" fill="#ef284c"/>
 <g transform="rotate(-30 -18 8)"><path d="M-18 7Q-28 22-25 42" fill="none" stroke="#f4f6fb" stroke-width="12" stroke-linecap="round"/><path d="M-24 39l-8 7 8 9 10-6z" fill="#151d30" stroke="#ef284c" stroke-width="3"/></g>
 <g transform="rotate(-6 18 8)"><path d="M18 7Q29 22 25 42" fill="none" stroke="#161f34" stroke-width="12" stroke-linecap="round"/><path d="M24 39l9 7-8 9-10-6z" fill="#f4f6fb" stroke="#11192c" stroke-width="3"/></g>
 <g transform="rotate(32 -9 45)"><path d="M-9 42Q-14 61-12 79" fill="none" stroke="#172138" stroke-width="16" stroke-linecap="round"/><path d="M-22 76Q-7 70 6 79L3 93Q-14 98-30 91Z" fill="#f7f7fb" stroke="#11192c" stroke-width="4"/><path d="M-23 86Q-8 90 2 83" stroke="#ef284c" stroke-width="4" fill="none"/></g>
 <g transform="rotate(20 9 45)"><path d="M9 42Q14 61 12 79" fill="none" stroke="#172138" stroke-width="16" stroke-linecap="round"/><path d="M2 79Q17 70 31 78L33 91Q16 98 1 93Z" fill="#f7f7fb" stroke="#11192c" stroke-width="4"/><path d="M6 87Q20 90 30 83" stroke="#ef284c" stroke-width="4" fill="none"/></g>
 </g><g transform="translate(1200 87) rotate(-10)">
 <ellipse cx="0" cy="75" rx="31" ry="6" fill="#091229" opacity=".22"/>
 <circle cx="0" cy="-38" r="30" fill="#ffd0bc" stroke="#10192e" stroke-width="4"/>
 <path d="M-30-44Q-18-70-2-62Q18-72 33-46Q20-56 12-39Q1-52-10-39Q-20-51-30-44Z" fill="#11192c"/>
 <path d="M-27-51Q-10-67 2-59M12-58Q21-57 28-48" fill="none" stroke="#ef284c" stroke-width="6" stroke-linecap="round"/>
 <circle cx="10" cy="-35" r="4.1" fill="#14213a"/><circle cx="11.4" cy="-36.4" r="1.3" fill="#fff"/>
 <path d="M-23 3Q-19-13 0-15Q20-12 24 4L20 43Q2 53-20 43Z" fill="#f7f8fb" stroke="#11192c" stroke-width="4"/>
 <path d="M-20 17L-4 12L-5 43L-20 40Z" fill="#161e31"/><path d="M7-7L23 4L20 19L7 14Z" fill="#ef284c"/><circle cx="2" cy="8" r="4" fill="#11192c"/><circle cx="2" cy="8" r="1.7" fill="#ef284c"/>
 <g transform="rotate(-20 -18 8)"><path d="M-18 7Q-28 22-25 42" fill="none" stroke="#f4f6fb" stroke-width="12" stroke-linecap="round"/><path d="M-24 39l-8 7 8 9 10-6z" fill="#151d30" stroke="#ef284c" stroke-width="3"/></g>
 <g transform="rotate(30 18 8)"><path d="M18 7Q29 22 25 42" fill="none" stroke="#161f34" stroke-width="12" stroke-linecap="round"/><path d="M24 39l9 7-8 9-10-6z" fill="#f4f6fb" stroke="#11192c" stroke-width="3"/></g>
 <g transform="rotate(-10 -9 45)"><path d="M-9 42Q-14 61-12 79" fill="none" stroke="#172138" stroke-width="16" stroke-linecap="round"/><path d="M-22 76Q-7 70 6 79L3 93Q-14 98-30 91Z" fill="#f7f7fb" stroke="#11192c" stroke-width="4"/><path d="M-23 86Q-8 90 2 83" stroke="#ef284c" stroke-width="4" fill="none"/></g>
 <g transform="rotate(-28 9 45)"><path d="M9 42Q14 61 12 79" fill="none" stroke="#172138" stroke-width="16" stroke-linecap="round"/><path d="M2 79Q17 70 31 78L33 91Q16 98 1 93Z" fill="#f7f7fb" stroke="#11192c" stroke-width="4"/><path d="M6 87Q20 90 30 83" stroke="#ef284c" stroke-width="4" fill="none"/></g>
 </g><g transform="translate(1360 86) rotate(-4)">
 <ellipse cx="0" cy="75" rx="31" ry="6" fill="#091229" opacity=".22"/>
 <circle cx="0" cy="-38" r="30" fill="#ffd0bc" stroke="#10192e" stroke-width="4"/>
 <path d="M-30-44Q-18-70-2-62Q18-72 33-46Q20-56 12-39Q1-52-10-39Q-20-51-30-44Z" fill="#11192c"/>
 <path d="M-27-51Q-10-67 2-59M12-58Q21-57 28-48" fill="none" stroke="#ef284c" stroke-width="6" stroke-linecap="round"/>
 <circle cx="10" cy="-35" r="4.1" fill="#14213a"/><circle cx="11.4" cy="-36.4" r="1.3" fill="#fff"/>
 <path d="M-23 3Q-19-13 0-15Q20-12 24 4L20 43Q2 53-20 43Z" fill="#f7f8fb" stroke="#11192c" stroke-width="4"/>
 <path d="M-20 17L-4 12L-5 43L-20 40Z" fill="#161e31"/><path d="M7-7L23 4L20 19L7 14Z" fill="#ef284c"/><circle cx="2" cy="8" r="4" fill="#11192c"/><circle cx="2" cy="8" r="1.7" fill="#ef284c"/>
 <g transform="rotate(-10 -18 8)"><path d="M-18 7Q-28 22-25 42" fill="none" stroke="#f4f6fb" stroke-width="12" stroke-linecap="round"/><path d="M-24 39l-8 7 8 9 10-6z" fill="#151d30" stroke="#ef284c" stroke-width="3"/></g>
 <g transform="rotate(22 18 8)"><path d="M18 7Q29 22 25 42" fill="none" stroke="#161f34" stroke-width="12" stroke-linecap="round"/><path d="M24 39l9 7-8 9-10-6z" fill="#f4f6fb" stroke="#11192c" stroke-width="3"/></g>
 <g transform="rotate(-16 -9 45)"><path d="M-9 42Q-14 61-12 79" fill="none" stroke="#172138" stroke-width="16" stroke-linecap="round"/><path d="M-22 76Q-7 70 6 79L3 93Q-14 98-30 91Z" fill="#f7f7fb" stroke="#11192c" stroke-width="4"/><path d="M-23 86Q-8 90 2 83" stroke="#ef284c" stroke-width="4" fill="none"/></g>
 <g transform="rotate(-16 9 45)"><path d="M9 42Q14 61 12 79" fill="none" stroke="#172138" stroke-width="16" stroke-linecap="round"/><path d="M2 79Q17 70 31 78L33 91Q16 98 1 93Z" fill="#f7f7fb" stroke="#11192c" stroke-width="4"/><path d="M6 87Q20 90 30 83" stroke="#ef284c" stroke-width="4" fill="none"/></g>
 </g><g transform="translate(1520 84) rotate(-2)">
 <ellipse cx="0" cy="75" rx="31" ry="6" fill="#091229" opacity=".22"/>
 <circle cx="0" cy="-38" r="30" fill="#ffd0bc" stroke="#10192e" stroke-width="4"/>
 <path d="M-30-44Q-18-70-2-62Q18-72 33-46Q20-56 12-39Q1-52-10-39Q-20-51-30-44Z" fill="#11192c"/>
 <path d="M-27-51Q-10-67 2-59M12-58Q21-57 28-48" fill="none" stroke="#ef284c" stroke-width="6" stroke-linecap="round"/>
 <circle cx="10" cy="-35" r="4.1" fill="#14213a"/><circle cx="11.4" cy="-36.4" r="1.3" fill="#fff"/>
 <path d="M-23 3Q-19-13 0-15Q20-12 24 4L20 43Q2 53-20 43Z" fill="#f7f8fb" stroke="#11192c" stroke-width="4"/>
 <path d="M-20 17L-4 12L-5 43L-20 40Z" fill="#161e31"/><path d="M7-7L23 4L20 19L7 14Z" fill="#ef284c"/><circle cx="2" cy="8" r="4" fill="#11192c"/><circle cx="2" cy="8" r="1.7" fill="#ef284c"/>
 <g transform="rotate(-4 -18 8)"><path d="M-18 7Q-28 22-25 42" fill="none" stroke="#f4f6fb" stroke-width="12" stroke-linecap="round"/><path d="M-24 39l-8 7 8 9 10-6z" fill="#151d30" stroke="#ef284c" stroke-width="3"/></g>
 <g transform="rotate(18 18 8)"><path d="M18 7Q29 22 25 42" fill="none" stroke="#161f34" stroke-width="12" stroke-linecap="round"/><path d="M24 39l9 7-8 9-10-6z" fill="#f4f6fb" stroke="#11192c" stroke-width="3"/></g>
 <g transform="rotate(-18 -9 45)"><path d="M-9 42Q-14 61-12 79" fill="none" stroke="#172138" stroke-width="16" stroke-linecap="round"/><path d="M-22 76Q-7 70 6 79L3 93Q-14 98-30 91Z" fill="#f7f7fb" stroke="#11192c" stroke-width="4"/><path d="M-23 86Q-8 90 2 83" stroke="#ef284c" stroke-width="4" fill="none"/></g>
 <g transform="rotate(-4 9 45)"><path d="M9 42Q14 61 12 79" fill="none" stroke="#172138" stroke-width="16" stroke-linecap="round"/><path d="M2 79Q17 70 31 78L33 91Q16 98 1 93Z" fill="#f7f7fb" stroke="#11192c" stroke-width="4"/><path d="M6 87Q20 90 30 83" stroke="#ef284c" stroke-width="4" fill="none"/></g>
 </g><g transform="translate(1680 91) rotate(8)">
 <ellipse cx="0" cy="75" rx="31" ry="6" fill="#091229" opacity=".22"/>
 <circle cx="0" cy="-38" r="30" fill="#ffd0bc" stroke="#10192e" stroke-width="4"/>
 <path d="M-30-44Q-18-70-2-62Q18-72 33-46Q20-56 12-39Q1-52-10-39Q-20-51-30-44Z" fill="#11192c"/>
 <path d="M-27-51Q-10-67 2-59M12-58Q21-57 28-48" fill="none" stroke="#ef284c" stroke-width="6" stroke-linecap="round"/>
 <circle cx="10" cy="-35" r="4.1" fill="#14213a"/><circle cx="11.4" cy="-36.4" r="1.3" fill="#fff"/>
 <path d="M-23 3Q-19-13 0-15Q20-12 24 4L20 43Q2 53-20 43Z" fill="#f7f8fb" stroke="#11192c" stroke-width="4"/>
 <path d="M-20 17L-4 12L-5 43L-20 40Z" fill="#161e31"/><path d="M7-7L23 4L20 19L7 14Z" fill="#ef284c"/><circle cx="2" cy="8" r="4" fill="#11192c"/><circle cx="2" cy="8" r="1.7" fill="#ef284c"/>
 <g transform="rotate(14 -18 8)"><path d="M-18 7Q-28 22-25 42" fill="none" stroke="#f4f6fb" stroke-width="12" stroke-linecap="round"/><path d="M-24 39l-8 7 8 9 10-6z" fill="#151d30" stroke="#ef284c" stroke-width="3"/></g>
 <g transform="rotate(10 18 8)"><path d="M18 7Q29 22 25 42" fill="none" stroke="#161f34" stroke-width="12" stroke-linecap="round"/><path d="M24 39l9 7-8 9-10-6z" fill="#f4f6fb" stroke="#11192c" stroke-width="3"/></g>
 <g transform="rotate(-12 -9 45)"><path d="M-9 42Q-14 61-12 79" fill="none" stroke="#172138" stroke-width="16" stroke-linecap="round"/><path d="M-22 76Q-7 70 6 79L3 93Q-14 98-30 91Z" fill="#f7f7fb" stroke="#11192c" stroke-width="4"/><path d="M-23 86Q-8 90 2 83" stroke="#ef284c" stroke-width="4" fill="none"/></g>
 <g transform="rotate(16 9 45)"><path d="M9 42Q14 61 12 79" fill="none" stroke="#172138" stroke-width="16" stroke-linecap="round"/><path d="M2 79Q17 70 31 78L33 91Q16 98 1 93Z" fill="#f7f7fb" stroke="#11192c" stroke-width="4"/><path d="M6 87Q20 90 30 83" stroke="#ef284c" stroke-width="4" fill="none"/></g>
 </g><g transform="translate(1840 98) rotate(0)">
 <ellipse cx="0" cy="75" rx="31" ry="6" fill="#091229" opacity=".22"/>
 <circle cx="0" cy="-38" r="30" fill="#ffd0bc" stroke="#10192e" stroke-width="4"/>
 <path d="M-30-44Q-18-70-2-62Q18-72 33-46Q20-56 12-39Q1-52-10-39Q-20-51-30-44Z" fill="#11192c"/>
 <path d="M-27-51Q-10-67 2-59M12-58Q21-57 28-48" fill="none" stroke="#ef284c" stroke-width="6" stroke-linecap="round"/>
 <circle cx="10" cy="-35" r="4.1" fill="#14213a"/><circle cx="11.4" cy="-36.4" r="1.3" fill="#fff"/>
 <path d="M-23 3Q-19-13 0-15Q20-12 24 4L20 43Q2 53-20 43Z" fill="#f7f8fb" stroke="#11192c" stroke-width="4"/>
 <path d="M-20 17L-4 12L-5 43L-20 40Z" fill="#161e31"/><path d="M7-7L23 4L20 19L7 14Z" fill="#ef284c"/><circle cx="2" cy="8" r="4" fill="#11192c"/><circle cx="2" cy="8" r="1.7" fill="#ef284c"/>
 <g transform="rotate(22 -18 8)"><path d="M-18 7Q-28 22-25 42" fill="none" stroke="#f4f6fb" stroke-width="12" stroke-linecap="round"/><path d="M-24 39l-8 7 8 9 10-6z" fill="#151d30" stroke="#ef284c" stroke-width="3"/></g>
 <g transform="rotate(-8 18 8)"><path d="M18 7Q29 22 25 42" fill="none" stroke="#161f34" stroke-width="12" stroke-linecap="round"/><path d="M24 39l9 7-8 9-10-6z" fill="#f4f6fb" stroke="#11192c" stroke-width="3"/></g>
 <g transform="rotate(8 -9 45)"><path d="M-9 42Q-14 61-12 79" fill="none" stroke="#172138" stroke-width="16" stroke-linecap="round"/><path d="M-22 76Q-7 70 6 79L3 93Q-14 98-30 91Z" fill="#f7f7fb" stroke="#11192c" stroke-width="4"/><path d="M-23 86Q-8 90 2 83" stroke="#ef284c" stroke-width="4" fill="none"/></g>
 <g transform="rotate(28 9 45)"><path d="M9 42Q14 61 12 79" fill="none" stroke="#172138" stroke-width="16" stroke-linecap="round"/><path d="M2 79Q17 70 31 78L33 91Q16 98 1 93Z" fill="#f7f7fb" stroke="#11192c" stroke-width="4"/><path d="M6 87Q20 90 30 83" stroke="#ef284c" stroke-width="4" fill="none"/></g>
 </g></g></svg>