<svg xmlns="http://www.w3.org/2000/svg" width="150" height="150" viewBox="0 0 150 150"><defs>
<linearGradient id="stone" x1="0" y1="0" x2="0" y2="1"><stop offset="0" stop-color="#8c8390"/><stop offset=".28" stop-color="#59586c"/><stop offset=".68" stop-color="#30334a"/><stop offset="1" stop-color="#171f33"/></linearGradient>
<linearGradient id="warm" x1="0" y1="0" x2="1" y2="1"><stop offset="0" stop-color="#d8b98e"/><stop offset=".35" stop-color="#8c7880"/><stop offset=".72" stop-color="#4c4d68"/><stop offset="1" stop-color="#242b43"/></linearGradient>
<linearGradient id="cyan" x1="0" y1="0" x2="0" y2="1"><stop offset="0" stop-color="#dcffff"/><stop offset=".25" stop-color="#68efff"/><stop offset=".68" stop-color="#0a8be3"/><stop offset="1" stop-color="#083f9e"/></linearGradient>
<linearGradient id="red" x1="0" y1="0" x2="1" y2="1"><stop offset="0" stop-color="#ff7880"/><stop offset=".36" stop-color="#ff244e"/><stop offset=".76" stop-color="#98072d"/><stop offset="1" stop-color="#291027"/></linearGradient>
<linearGradient id="gold" x1="0" y1="0" x2="1" y2="1"><stop offset="0" stop-color="#fff5a5"/><stop offset=".3" stop-color="#ffc84b"/><stop offset=".75" stop-color="#aa5b18"/><stop offset="1" stop-color="#5c3014"/></linearGradient>
<linearGradient id="grass" x1="0" y1="0" x2="0" y2="1"><stop offset="0" stop-color="#edf370"/><stop offset=".45" stop-color="#94ca39"/><stop offset="1" stop-color="#3d732d"/></linearGradient>
<filter id="cg" x="-80%" y="-80%" width="260%" height="260%"><feGaussianBlur stdDeviation="7" result="b"/><feMerge><feMergeNode in="b"/><feMergeNode in="SourceGraphic"/></feMerge></filter>
<filter id="gg" x="-80%" y="-80%" width="260%" height="260%"><feGaussianBlur stdDeviation="6" result="b"/><feMerge><feMergeNode in="b"/><feMergeNode in="SourceGraphic"/></feMerge></filter>
</defs><rect x="10" y="10" width="130" height="130" rx="15" fill="url(#warm)" stroke="#24263b" stroke-width="6"/><path d="M14,50H136M14,96H136M48,12V138M98,12V138" stroke="#2e3146" stroke-width="5" opacity=".7"/><path d="M73,12L64,51L82,70L67,94L84,138M64,51L39,72M82,70L113,55M67,94L41,111" fill="none" stroke="#38e8ff" stroke-width="5" filter="url(#cg)"/><path d="M22,20Q75,2 128,20" fill="none" stroke="#9dd84e" stroke-width="10" stroke-linecap="round"/><g transform="translate(34 20) scale(0.55)"><circle cy="-6" r="5" fill="#ff55d6"/><circle cx="6" r="5" fill="#ff55d6"/><circle cy="6" r="5" fill="#ff55d6"/><circle cx="-6" r="5" fill="#ff55d6"/><circle r="3" fill="#ffe86c"/></g><path d="M116,20 C104,31.25 125,51.5 116,65" fill="none" stroke="#47752a" stroke-width="6" stroke-linecap="round"/><ellipse cx="124" cy="38" rx="9" ry="5" transform="rotate(-28 124 38)" fill="#d6e754"/><ellipse cx="108" cy="47" rx="9" ry="5" transform="rotate(28 108 47)" fill="#82ba39"/><ellipse cx="124" cy="56" rx="9" ry="5" transform="rotate(-28 124 56)" fill="#82ba39"/><ellipse cx="108" cy="65" rx="9" ry="5" transform="rotate(28 108 65)" fill="#d6e754"/><ellipse cx="124" cy="74" rx="9" ry="5" transform="rotate(-28 124 74)" fill="#82ba39"/></svg>