<svg xmlns="http://www.w3.org/2000/svg" width="250" height="120" viewBox="0 0 250 120"><defs>
<linearGradient id="stone" x1="0" y1="0" x2="0" y2="1"><stop offset="0" stop-color="#8c8390"/><stop offset=".28" stop-color="#59586c"/><stop offset=".68" stop-color="#30334a"/><stop offset="1" stop-color="#171f33"/></linearGradient>
<linearGradient id="warm" x1="0" y1="0" x2="1" y2="1"><stop offset="0" stop-color="#d8b98e"/><stop offset=".35" stop-color="#8c7880"/><stop offset=".72" stop-color="#4c4d68"/><stop offset="1" stop-color="#242b43"/></linearGradient>
<linearGradient id="cyan" x1="0" y1="0" x2="0" y2="1"><stop offset="0" stop-color="#dcffff"/><stop offset=".25" stop-color="#68efff"/><stop offset=".68" stop-color="#0a8be3"/><stop offset="1" stop-color="#083f9e"/></linearGradient>
<linearGradient id="red" x1="0" y1="0" x2="1" y2="1"><stop offset="0" stop-color="#ff7880"/><stop offset=".36" stop-color="#ff244e"/><stop offset=".76" stop-color="#98072d"/><stop offset="1" stop-color="#291027"/></linearGradient>
<linearGradient id="gold" x1="0" y1="0" x2="1" y2="1"><stop offset="0" stop-color="#fff5a5"/><stop offset=".3" stop-color="#ffc84b"/><stop offset=".75" stop-color="#aa5b18"/><stop offset="1" stop-color="#5c3014"/></linearGradient>
<linearGradient id="grass" x1="0" y1="0" x2="0" y2="1"><stop offset="0" stop-color="#edf370"/><stop offset=".45" stop-color="#94ca39"/><stop offset="1" stop-color="#3d732d"/></linearGradient>
<filter id="cg" x="-80%" y="-80%" width="260%" height="260%"><feGaussianBlur stdDeviation="7" result="b"/><feMerge><feMergeNode in="b"/><feMergeNode in="SourceGraphic"/></feMerge></filter>
<filter id="gg" x="-80%" y="-80%" width="260%" height="260%"><feGaussianBlur stdDeviation="6" result="b"/><feMerge><feMergeNode in="b"/><feMergeNode in="SourceGraphic"/></feMerge></filter>
</defs><g transform="translate(8 106)"><polygon points="0,0 20,-58 42,0" fill="url(#red)" stroke="#ff7184" stroke-width="2"/><polygon points="42,0 62,-86 84,0" fill="url(#red)" stroke="#ff7184" stroke-width="2"/><polygon points="85,0 105,-58 127,0" fill="url(#red)" stroke="#ff7184" stroke-width="2"/><polygon points="128,0 148,-86 170,0" fill="url(#red)" stroke="#ff7184" stroke-width="2"/><polygon points="173,0 193,-58 215,0" fill="url(#red)" stroke="#ff7184" stroke-width="2"/><path d="M0,1H235" stroke="#1e1a28" stroke-width="17" stroke-linecap="round"/></g></svg>