<svg xmlns="http://www.w3.org/2000/svg" width="230" height="390" viewBox="0 0 230 390"><defs>
<linearGradient id="stone" x1="0" y1="0" x2="0" y2="1"><stop offset="0" stop-color="#8c8390"/><stop offset=".28" stop-color="#59586c"/><stop offset=".68" stop-color="#30334a"/><stop offset="1" stop-color="#171f33"/></linearGradient>
<linearGradient id="warm" x1="0" y1="0" x2="1" y2="1"><stop offset="0" stop-color="#d8b98e"/><stop offset=".35" stop-color="#8c7880"/><stop offset=".72" stop-color="#4c4d68"/><stop offset="1" stop-color="#242b43"/></linearGradient>
<linearGradient id="cyan" x1="0" y1="0" x2="0" y2="1"><stop offset="0" stop-color="#dcffff"/><stop offset=".25" stop-color="#68efff"/><stop offset=".68" stop-color="#0a8be3"/><stop offset="1" stop-color="#083f9e"/></linearGradient>
<linearGradient id="red" x1="0" y1="0" x2="1" y2="1"><stop offset="0" stop-color="#ff7880"/><stop offset=".36" stop-color="#ff244e"/><stop offset=".76" stop-color="#98072d"/><stop offset="1" stop-color="#291027"/></linearGradient>
<linearGradient id="gold" x1="0" y1="0" x2="1" y2="1"><stop offset="0" stop-color="#fff5a5"/><stop offset=".3" stop-color="#ffc84b"/><stop offset=".75" stop-color="#aa5b18"/><stop offset="1" stop-color="#5c3014"/></linearGradient>
<linearGradient id="grass" x1="0" y1="0" x2="0" y2="1"><stop offset="0" stop-color="#edf370"/><stop offset=".45" stop-color="#94ca39"/><stop offset="1" stop-color="#3d732d"/></linearGradient>
<filter id="cg" x="-80%" y="-80%" width="260%" height="260%"><feGaussianBlur stdDeviation="7" result="b"/><feMerge><feMergeNode in="b"/><feMergeNode in="SourceGraphic"/></feMerge></filter>
<filter id="gg" x="-80%" y="-80%" width="260%" height="260%"><feGaussianBlur stdDeviation="6" result="b"/><feMerge><feMergeNode in="b"/><feMergeNode in="SourceGraphic"/></feMerge></filter>
</defs><path d="M18,35Q115,4 212,35L203,83Q115,64 27,83Z" fill="url(#stone)" stroke="#24293d" stroke-width="5"/><path d="M36,25H195" stroke="#9acf43" stroke-width="13" stroke-linecap="round"/><path d="M44,35 C56,57.5 35,98 44,125" fill="none" stroke="#47752a" stroke-width="6" stroke-linecap="round"/><ellipse cx="36" cy="53" rx="9" ry="5" transform="rotate(28 36 53)" fill="#d6e754"/><ellipse cx="52" cy="71" rx="9" ry="5" transform="rotate(-28 52 71)" fill="#82ba39"/><ellipse cx="36" cy="89" rx="9" ry="5" transform="rotate(28 36 89)" fill="#82ba39"/><ellipse cx="52" cy="107" rx="9" ry="5" transform="rotate(-28 52 107)" fill="#d6e754"/><ellipse cx="36" cy="125" rx="9" ry="5" transform="rotate(28 36 125)" fill="#82ba39"/><path d="M187,35 C175,53.75 196,87.5 187,110" fill="none" stroke="#47752a" stroke-width="6" stroke-linecap="round"/><ellipse cx="195" cy="53" rx="9" ry="5" transform="rotate(-28 195 53)" fill="#d6e754"/><ellipse cx="179" cy="68" rx="9" ry="5" transform="rotate(28 179 68)" fill="#82ba39"/><ellipse cx="195" cy="83" rx="9" ry="5" transform="rotate(-28 195 83)" fill="#82ba39"/><ellipse cx="179" cy="98" rx="9" ry="5" transform="rotate(28 179 98)" fill="#d6e754"/><ellipse cx="195" cy="113" rx="9" ry="5" transform="rotate(-28 195 113)" fill="#82ba39"/><g filter="url(#cg)"><path d="M68,71C63,164 72,252 54,348Q115,384 176,348C158,250 168,166 162,71Z" fill="url(#cyan)" opacity=".78"/><path d="M93,74C89,169 98,261 88,350" fill="none" stroke="#d8ffff" stroke-width="8" opacity=".75"/><path d="M136,74C138,174 128,264 141,349" fill="none" stroke="#7ef4ff" stroke-width="5" opacity=".62"/></g><ellipse cx="115" cy="356" rx="87" ry="22" fill="#d9ffff" opacity=".42"/></svg>