<svg xmlns="http://www.w3.org/2000/svg" width="1920" height="1080" viewBox="0 0 1920 1080"><defs><linearGradient id="sky" x1="0" y1="0" x2="0" y2="1"><stop offset="0" stop-color="#02050a"/><stop offset=".42" stop-color="#061326"/><stop offset="1" stop-color="#03070e"/></linearGradient><radialGradient id="planet"><stop offset="0" stop-color="#204f86"/><stop offset=".62" stop-color="#0d2d59"/><stop offset="1" stop-color="#06142c"/></radialGradient><filter id="b" x="-60%" y="-60%" width="220%" height="220%"><feGaussianBlur stdDeviation="8" result="x"/><feMerge><feMergeNode in="x"/><feMergeNode in="SourceGraphic"/></feMerge></filter><filter id="r" x="-60%" y="-60%" width="220%" height="220%"><feGaussianBlur stdDeviation="5" result="x"/><feMerge><feMergeNode in="x"/><feMergeNode in="SourceGraphic"/></feMerge></filter><pattern id="grid" width="96" height="96" patternUnits="userSpaceOnUse"><path d="M96 0H0V96" fill="none" stroke="#163451" stroke-width="1" opacity=".34"/></pattern></defs><rect width="1920" height="1080" fill="url(#sky)"/><circle cx="1530" cy="300" r="235" fill="url(#planet)" stroke="#2c69a9" stroke-width="3" opacity=".92"/><path d="M1306 303c76-154 245-242 405-206" fill="none" stroke="#6ea2d4" stroke-width="2" opacity=".28"/><rect width="1920" height="1080" fill="url(#grid)"/><g fill="#030912" stroke="#0f263d" stroke-width="2"><path d="M0 700V332h90V245h34v455zM86 700V398h130V316h55v384zM250 700V480h76V355h44v345zM338 700V410h88V292h36v408zM448 700V475h130V361h38v339zM611 700V335h72V232h30v468zM705 700V442h116V349h54v351zM830 700V515h110V394h45v306zM1000 700V365h98V258h38v442zM1120 700V468h87V330h49v370zM1278 700V390h92V281h35v419zM1428 700V455h102V340h48v360zM1592 700V380h92V270h36v430zM1745 700V445h115V315h60v385z"/></g><g stroke="#0d2336" stroke-width="20"><path d="M0 235h560l128 95h235M148 285h490l120-76h300M1170 260h392l118-74h240M1230 360h410l118 85h162"/></g><g stroke="#213a50" stroke-width="3"><path d="M0 224h560l128 95h235M148 274h490l120-76h300M1170 249h392l118-74h240"/></g><g fill="#ff3159" filter="url(#r)"><rect x="118" y="386" width="6" height="20"/><rect x="466" y="399" width="6" height="18"/><rect x="1042" y="314" width="6" height="18"/><rect x="1642" y="338" width="6" height="22"/></g><g fill="#35bdf1" filter="url(#b)" opacity=".55"><rect x="356" y="530" width="4" height="34"/><rect x="808" y="468" width="4" height="34"/><rect x="1218" y="540" width="4" height="34"/><rect x="1518" y="495" width="4" height="34"/></g><path d="M1018 252l560-155" stroke="#74bfff" stroke-width="3" opacity=".5" filter="url(#b)"/><rect y="700" width="1920" height="380" fill="#02050a" opacity=".38"/></svg>