<svg xmlns="http://www.w3.org/2000/svg" width="320" height="80" viewBox="0 0 320 80"><defs><linearGradient id="t" x1="0" y1="0" x2="0" y2="1"><stop stop-color="#fff"/><stop offset="1" stop-color="#ccd9e1"/></linearGradient><linearGradient id="b" x1="0" y1="0" x2="0" y2="1"><stop stop-color="#26333e"/><stop offset="1" stop-color="#101820"/></linearGradient><filter id="g" x="-50%" y="-100%" width="200%" height="300%"><feGaussianBlur stdDeviation="4" result="x"/><feMerge><feMergeNode in="x"/><feMergeNode in="SourceGraphic"/></feMerge></filter></defs><path d="M13 4h294l9 7v13H4V11z" fill="url(#t)" stroke="#7c909d" stroke-width="2"/><path d="M4 10h312" stroke="#fff" stroke-width="3"/><path d="M4 23h312v42l-10 9H14L4 65z" fill="url(#b)" stroke="#607786" stroke-width="2"/><path d="M74 48h44M202 48h44" stroke="#00e5ff" stroke-width="5" filter="url(#g)"/><path d="M94 38l12 10-12 10M78 38l12 10-12 10M226 38l-12 10 12 10M242 38l-12 10 12 10" fill="none" stroke="#bffaff" stroke-width="4"/><rect x="18" y="34" width="5" height="21" rx="2" fill="#00e5ff"/><rect x="297" y="34" width="5" height="21" rx="2" fill="#00e5ff"/></svg>