<svg xmlns="http://www.w3.org/2000/svg" width="320" height="44" viewBox="0 0 320 44"><defs><filter id="g" x="-20%" y="-30%" width="140%" height="160%"><feGaussianBlur stdDeviation="2.2" result="b"/><feMerge><feMergeNode in="b"/><feMergeNode in="SourceGraphic"/></feMerge></filter></defs><rect y="37" width="320" height="7" rx="2" fill="#1a232b" stroke="#5c707c" stroke-width="1.5"/><path d="M0 38 10 5l10 33 10-33 10 33 10-33 10 33 10-33 10 33 10-33 10 33 10-33 10 33 10-33 10 33 10-33 10 33 10-33 10 33 10-33 10 33 10-33 10 33 10-33 10 33 10-33 10 33 10-33 10 33 10-33 10 33 10-33 10 33 10-33 10 33Z" fill="#ff3159" stroke="#ff9cac" stroke-width="1.5" filter="url(#g)"/><path d="M0 44H320" stroke="#ff92a5" stroke-width="2"/></svg>