<svg xmlns="http://www.w3.org/2000/svg" viewBox="0 0 1600 900">
<defs>
 <linearGradient id="stone" x1="0" y1="0" x2="0" y2="1"><stop stop-color="#aeb9e7"/><stop offset=".55" stop-color="#7586c8"/><stop offset="1" stop-color="#4b5c9c"/></linearGradient>
 <linearGradient id="isle" x1="0" y1="0" x2="0" y2="1"><stop stop-color="#6777b5"/><stop offset="1" stop-color="#394779"/></linearGradient>
 <linearGradient id="water" x1="0" y1="0" x2="0" y2="1"><stop stop-color="#dcffff" stop-opacity=".75"/><stop offset="1" stop-color="#59d9ff" stop-opacity="0"/></linearGradient>
</defs>
<g opacity=".72">
 <g transform="translate(70 190)"><path d="M0 230 Q120 190 250 225 L220 285 170 325 85 310 20 270Z" fill="url(#isle)"/><path d="M18 218 Q100 182 238 218" fill="none" stroke="#c4dfb5" stroke-width="18"/><path d="M50 215V88h54v127M125 215V50h66v165M202 215V120h40v95" fill="url(#stone)"/><path d="M108 215V165q0-52 48-52t48 52v50" fill="none" stroke="#d5daf5" stroke-width="16"/><path d="M164 250v235" stroke="url(#water)" stroke-width="28"/></g>
 <g transform="translate(560 105)"><path d="M0 330 Q145 282 330 320 L292 394 210 438 90 410 22 364Z" fill="url(#isle)"/><path d="M12 316 Q156 270 318 315" fill="none" stroke="#b7d8a4" stroke-width="20"/><path d="M70 314V118h68v196M158 314V52h76v262M250 314V154h52v160" fill="url(#stone)"/><path d="M64 205 Q108 132 154 205M182 224 Q226 148 274 224" fill="none" stroke="#d6dbf5" stroke-width="18"/><path d="M114 356v330M252 350v270" stroke="url(#water)" stroke-width="24"/></g>
 <g transform="translate(1110 210)"><path d="M0 235 Q130 194 280 230 L242 292 176 332 74 310 20 268Z" fill="url(#isle)"/><path d="M10 222 Q128 184 268 220" fill="none" stroke="#bddca9" stroke-width="18"/><path d="M55 220V98h54v122M130 220V42h68v178M218 220V112h46v108" fill="url(#stone)"/><path d="M95 220V174q0-56 48-56t48 56v46" fill="none" stroke="#d8def7" stroke-width="15"/><path d="M185 268v290" stroke="url(#water)" stroke-width="25"/></g>
</g>
<g fill="#dca9ef" opacity=".68"><circle cx="260" cy="390" r="52"/><circle cx="905" cy="350" r="70"/><circle cx="1380" cy="415" r="46"/></g>
<g fill="#4969a5" opacity=".55"><path d="M280 310l-36 76 42-17 40 18z"/><path d="M965 240l-32 70 36-15 38 16z"/><path d="M1450 320l-28 62 32-13 34 14z"/></g>
</svg>